# xmcd
#
# Track frame offsets:
#	150
#	10995
#	84358
#	107182
#	151002
#	214113
#	241975
#	299532
#	313296
#
# Disc length: 4703 seconds
#
# Revision: 1
# Processed by: cddbd v1.5.2PL0 Copyright (c) Steve Scherf et al.
# Submitted via: audiograbber 1.82.00
#
DISCID=76125d09
DTITLE=Gabi Steiner - Von Mensch zu Mensch CD1
DYEAR=2006
DGENRE=
TTITLE0=Begruessung
TTITLE1=Was ist Empfehlungsmarketiing
TTITLE2=Die Wichtigkeit der Geschichte
TTITLE3=Meine ausfuehrliche Geschichte
TTITLE4=Taeume und Ziele
TTITLE5=Zielcollage
TTITLE6=Das WARUM
TTITLE7=Die Entwicklung im Network Marketing
TTITLE8=Die Macht der Duplikation
EXTD=
EXTT0=
EXTT1=
EXTT2=
EXTT3=
EXTT4=
EXTT5=
EXTT6=
EXTT7=
EXTT8=
PLAYORDER=
